<?xml version="1.0" encoding="UTF-8" standalone="no"?>
<svg width="113px" height="31px" viewBox="0 0 113 31" version="1.1" xmlns="http://www.w3.org/2000/svg" xmlns:xlink="http://www.w3.org/1999/xlink">
    <!-- Generator: Sketch 42 (36781) - http://www.bohemiancoding.com/sketch -->
    <title>Group 3</title>
    <desc>Created with Sketch.</desc>
    <defs></defs>
    <g id="Page-1" stroke="none" stroke-width="1" fill="none" fill-rule="evenodd">
        <g id="Jobsite-View-Cement-Filter_3" transform="translate(-24.000000, -16.000000)">
            <g id="Group-2">
                <g id="Header">
                    <g id="logo" transform="translate(24.000000, 16.000000)">
                        <g id="Group-3">
                            <g>
                                <path d="M89.6787114,24.7692065 L89.6787114,23.5779279 L93.4251393,23.5779279 L97.1721294,23.5779279 L97.1721294,24.7692065 L97.1721294,25.9604851 L93.4251393,25.9604851 L89.6787114,25.9604851 L89.6787114,24.7692065 Z M58.2450348,24.7692065 L58.2450348,23.5779279 L61.9914627,23.5779279 L65.7384527,23.5779279 L65.7384527,24.7692065 L65.7384527,25.9604851 L61.9914627,25.9604851 L58.2450348,25.9604851 L58.2450348,24.7692065 Z M98.5174478,29.1211119 L98.51801,27.708893 L98.6113333,27.5076294 C98.7923582,27.1197189 98.9379652,27.0095299 100.857279,25.8070075 C101.852915,25.1835398 102.666965,24.6646393 102.666965,24.6539577 C102.666965,24.6354055 100.273164,23.0938831 99.42201,22.564301 C98.9154776,22.2489129 98.7777413,22.1252313 98.6512488,21.8716841 L98.5556766,21.6799776 L98.5556766,20.2272811 L98.5556766,18.7745846 L100.034796,18.7745846 L101.514478,18.7745846 L101.516164,19.667903 L101.517851,20.5612214 L103.599075,21.8666244 C104.743692,22.5845398 105.706721,23.1714652 105.739891,23.1714652 C105.772498,23.1714652 106.745647,22.5755448 107.901507,21.84751 L110.004095,20.5229925 L110.005781,19.6487886 L110.007468,18.7745846 L111.486587,18.7745846 L112.966269,18.7745846 L112.966269,20.1564453 C112.966269,21.4770274 112.962333,21.5484254 112.883627,21.7609328 C112.740269,22.1465945 112.526637,22.3096294 110.583711,23.5200224 C109.622368,24.1193159 108.83699,24.6235995 108.838677,24.6410274 C108.84205,24.6713856 111.695721,26.5204254 112.235985,26.8431219 C112.540692,27.024709 112.744204,27.2293458 112.848209,27.4592811 C112.921856,27.6228781 112.926353,27.7077687 112.926915,29.0828831 L112.927478,30.5333308 L112.168522,30.5333308 C111.751378,30.5333308 111.085184,30.5220871 110.689403,30.5080323 L109.968677,30.4827338 L109.968677,29.6102164 L109.968677,28.7371368 L107.879582,27.4255498 C106.730468,26.7042612 105.768562,26.1139627 105.741015,26.1139627 C105.71403,26.1139627 104.743692,26.7149428 103.584458,27.4497239 L101.476811,28.7849229 L101.476249,29.6591269 L101.476249,30.5333308 L99.9965672,30.5333308 L98.5168856,30.5333308 L98.5174478,29.1211119 L98.5174478,29.1211119 Z M85.951398,30.5119677 C85.5809154,30.432699 85.1244179,30.1909577 84.824209,29.9160473 C84.4340498,29.558495 84.1866866,29.1576542 84.0427662,28.6499975 C83.9764279,28.4155647 83.9719303,28.17551 83.9719303,24.6921866 C83.9719303,20.5494154 83.9561891,20.806898 84.2479652,20.1974851 C84.4419204,19.7921468 84.9636318,19.2709975 85.374592,19.0725448 C85.9913134,18.7745846 85.4763483,18.7987587 91.6480597,18.7841418 L97.1721294,18.7717736 L97.1721294,20.099102 L97.1721294,21.4258682 L92.3097562,21.4258682 C87.613791,21.4258682 87.4417612,21.4281169 87.3040249,21.4989527 C87.1280597,21.5883408 87.0471045,21.6760423 86.971209,21.8581915 C86.9194876,21.9813109 86.9121791,22.3641617 86.9121791,24.7692065 C86.9121791,27.0078433 86.9217363,27.5621617 86.9639005,27.6627935 C87.0324876,27.8269527 87.2584876,28.0214701 87.4389502,28.071505 C87.5367711,28.0990522 89.1513781,28.1119826 92.3783433,28.1119826 L97.1721294,28.1125448 L97.1721294,29.3420522 L97.1721294,30.5715597 L91.6862886,30.5687488 C87.1454876,30.5659378 86.1577214,30.5563806 85.951398,30.5119677 L85.951398,30.5119677 L85.951398,30.5119677 Z M54.4553184,30.4956642 C54.0966418,30.4017786 53.7036716,30.1999527 53.4411294,29.9739527 C53.1032537,29.683301 52.9351592,29.4617985 52.7468259,29.0592711 C52.5174527,28.5701667 52.5202637,28.6235746 52.5202637,24.6921866 C52.5202637,20.64049 52.5095821,20.8113955 52.812602,20.1969229 C53.0532189,19.709505 53.4293234,19.3283408 53.9032488,19.091097 C54.5447065,18.7700871 54.0415473,18.793699 60.2239403,18.793699 L65.7187761,18.793699 L65.7288955,20.1092214 L65.7390149,21.425306 L60.826607,21.4354254 L55.914199,21.4449826 L55.7753383,21.5405547 C55.6983184,21.5928383 55.596,21.7052761 55.5476517,21.7901667 L55.4588259,21.9447687 L55.4588259,24.750092 C55.4588259,27.5205597 55.4599502,27.557102 55.5392189,27.708893 C55.5830697,27.7932214 55.6926965,27.9146542 55.7826468,27.9781816 L55.9456816,28.0934303 L60.8417861,28.1035498 L65.7384527,28.1136692 L65.7384527,29.3426144 L65.7384527,30.5715597 L60.2334975,30.5693109 C54.9871493,30.5670622 54.7161741,30.5636891 54.4553184,30.4956642 L54.4553184,30.4956642 L54.4553184,30.4956642 Z M40.8902587,30.4956642 C39.9963781,30.2612313 39.3178159,29.6040323 39.0440299,28.707903 C38.9776915,28.490898 38.973194,28.2525299 38.973194,24.6730721 L38.973194,20.8687388 L39.0816965,20.5617836 C39.2340498,20.131709 39.4218209,19.8376841 39.7495771,19.5155498 C39.9564627,19.3125995 40.1166866,19.1967886 40.3483085,19.0837886 C40.9835821,18.772898 40.5057214,18.7970721 46.2647861,18.7835796 L51.4048806,18.7717736 L51.4048806,20.099102 L51.4048806,21.4258682 L46.9208607,21.4258682 C42.4469602,21.4258682 42.4362786,21.4264303 42.2704328,21.5062612 C42.1551841,21.5624801 42.0719801,21.6417488 41.9988955,21.7659925 L41.8937662,21.9447687 L41.8937662,24.750092 C41.8937662,27.5205597 41.8948905,27.557102 41.9741592,27.708893 C42.01801,27.7932214 42.1276368,27.9146542 42.2175871,27.9781816 L42.3806219,28.0934303 L46.8927512,28.1035498 L51.4048806,28.1136692 L51.4048806,29.3426144 L51.4048806,30.5715597 L46.2844627,30.5693109 C41.4130945,30.5670622 41.1505522,30.5636891 40.8902587,30.4956642 L40.8902587,30.4956642 L40.8902587,30.4956642 Z M67.2366866,24.7871965 L67.2366866,18.7723358 L73.9520348,18.7830174 L80.6673831,18.793699 L80.9366716,18.8836493 C81.5162886,19.0781667 81.9716617,19.4531468 82.2325174,19.9501219 C82.5091144,20.4780174 82.4928109,20.1148433 82.4928109,25.7378582 L82.4928109,30.8026194 L80.9749005,30.8026194 L79.45699,30.8026194 L79.45699,26.5226741 C79.45699,21.9172214 79.4642985,22.0898134 79.2630348,21.8075945 C79.2191841,21.7457537 79.1016866,21.6479328 79.0027413,21.5894652 L78.8228408,21.4837736 L77.5646617,21.4719677 L76.3059204,21.4607239 L76.3059204,26.1313905 L76.3059204,30.8026194 L74.826801,30.8026194 L73.3476816,30.8026194 L73.3381244,26.4473408 L73.328005,22.0926244 L73.2116318,21.904291 C73.1396716,21.7879179 73.0238607,21.672107 72.9069254,21.6001468 L72.7191542,21.4837736 L71.4958308,21.4719677 L70.2730697,21.4607239 L70.2730697,26.1313905 L70.2730697,30.8026194 L68.7551592,30.8026194 L67.2372488,30.8026194 L67.2372488,24.7877587 L67.2366866,24.7871965 Z M40.4337612,0.177932836 L51.7568109,0.17568408 L51.6865373,0.267320896 L25.9444627,30.8599627 L14.8221144,30.8796393 L40.4337612,0.177370647 L40.4337612,0.177932836 Z" id="Fill-1" fill="#293064"></path>
                                <path d="M0.00539701493,30.8531602 L25.5658846,0.216667662 L36.9029891,0.216667662 L36.8057303,0.322359204 L11.0535363,30.9206229 L5.50079502,30.9206229 C0.21621791,30.9206229 -0.0491353234,30.9172498 0.00539701493,30.8531602" id="Fill-3" fill="#DF343D"></path>
                            </g>
                        </g>
                    </g>
                </g>
            </g>
        </g>
    </g>
</svg>