<svg id="Layer_1" data-name="Layer 1" xmlns="http://www.w3.org/2000/svg" viewBox="0 0 321.62 281.94"><defs><style>.cls-1{fill:#2c98d4}.cls-2{fill:none;stroke:#2c98d4;stroke-linecap:round;stroke-miterlimit:10;stroke-width:4px}</style></defs><title>alerts-icon</title><g id="alerts-icon"><path class="cls-1" d="M171 28.24a8.75 8.75 0 0 1 7.66 4.42l147.95 256.26a8.84 8.84 0 0 1-7.66 13.26H23.05a8.84 8.84 0 0 1-7.66-13.26L163.34 32.67a8.75 8.75 0 0 1 7.66-4.43m0-4a12.72 12.72 0 0 0-11.12 6.42L11.93 286.92a12.84 12.84 0 0 0 11.12 19.26h295.9a12.84 12.84 0 0 0 11.12-19.26L182.12 30.67A12.72 12.72 0 0 0 171 24.24z" transform="translate(-10.19 -24.24)"/><path class="cls-1" d="M171 230.29A10.75 10.75 0 1 1 160.25 241 10.76 10.76 0 0 1 171 230.29m0-4A14.75 14.75 0 1 0 185.75 241 14.75 14.75 0 0 0 171 226.29zm0-100.19c10.75 0 13.62 1.45 14.3 2l-6 78.36v.3c0 3-3.89 5.56-8.33 5.56s-8.33-2.6-8.33-5.56v-.3l-6-78.36c.68-.51 3.55-2 14.3-2m0-4c-6.78 0-18.33.43-18.33 5.68l6 78.94c0 5.26 5.55 9.56 12.33 9.56s12.33-4.3 12.33-9.56l6-78.94c0-5.26-11.55-5.68-18.33-5.68z" transform="translate(-10.19 -24.24)"/></g><path class="cls-2" d="M163.15 100.94l-16.32 16.63m28.43-15.53l-28.2 31.84m28.81-17.22l-27.26 30.78m26.21-14.6l-24.94 28.17m22.75-10.56l-21.94 24.77m20.71-7.76l-18.18 18.91m11.08 20.35l-14.47 13.85m21.47-6.85l-14.47 13.85"/></svg>