<svg id="Layer_1" xmlns="http://www.w3.org/2000/svg" xmlns:xlink="http://www.w3.org/1999/xlink" viewBox="0 0 342 342"><style>.st0{display:none}.st1{fill:#fff}.st1,.st2{display:inline}.st3{stroke:#e6e7e8}.st3,.st4,.st5{fill:none;stroke-miterlimit:10}.st4{stroke:#d1d3d4}.st5{display:inline;stroke:#bcbec0}.st6{fill:#4197d3}.st7{stroke-miterlimit:10}.st7,.st8,.st9{fill:none;stroke:#4197d3;stroke-width:6;stroke-linecap:round;stroke-linejoin:round}.st8{display:inline;stroke-miterlimit:10}.st9{stroke-dasharray:14.0275,14.0275}.st10{fill:#2c98d4}.st11{fill:#fff}.st12{fill:#38a4dd}.st13{display:inline;fill:#4197d3}.st14,.st15{fill:none;stroke-width:6;stroke-miterlimit:10}.st14{display:inline;stroke-linecap:round;stroke-linejoin:round;stroke-dasharray:20;stroke:#4197d3}.st15{stroke:#2c98d4}.st16,.st17{display:inline}.st16{stroke:#2c98d4;stroke-width:6;stroke-miterlimit:10;fill:none}.st17{fill:#2c98d4}.st18{fill:none;stroke:#2c98d4;stroke-width:6;stroke-linecap:round;stroke-miterlimit:10}.st18,.st19{stroke-linejoin:round}.st19,.st20{display:inline;fill:none;stroke:#2c98d4;stroke-width:6;stroke-linecap:round;stroke-miterlimit:10}</style><g id="grid" class="st0"><path class="st1" d="M-84.8-84.6h512v512h-512z"/><g class="st2"><path class="st3" d="M-84.8-84.6h512v512h-512zm0 501.3h512m-512-10.7h512m-512-10.6h512m-512-10.7h512m-512-10.7h512m-512-10.6h512m-512-10.7h512m-512-10.7h512m-512-10.6h512m-512-10.7h512m-512-10.7h512m-512-10.6h512m-512-10.7h512m-512-10.7h512m-512-10.6h512m-512-10.7h512"/><path class="st4" d="M-84.8 246h512"/><path class="st3" d="M-84.8 235.4h512m-512-10.7h512m-512-10.7h512m-512-10.6h512m-512-10.7h512m-512-10.7h512m-512-21.3h512m-512-10.7h512m-512-10.6h512m-512-10.7h512m-512-10.7h512m-512-10.6h512"/><path class="st4" d="M-84.8 96.7h512"/><path class="st3" d="M-84.8 86h512m-512-10.6h512m-512-10.7h512M-84.8 54h512m-512-10.6h512m-512-10.7h512M-84.8 22h512m-512-10.6h512M-84.8.7h512M-84.8-10h512m-512-10.6h512m-512-10.7h512M-84.8-42h512m-512-10.6h512m-512-10.7h512M-84.8-74h512m-10.6-10.6v512m-10.7-512v512m-10.7-512v512m-10.6-512v512m-10.7-512v512m-10.7-512v512m-10.6-512v512m-10.7-512v512m-10.7-512v512m-10.6-512v512m-10.7-512v512m-10.7-512v512m-10.6-512v512m-10.7-512v512m-10.7-512v512m-10.6-512v512"/><path class="st4" d="M245.9-84.6v512"/><path class="st3" d="M235.2-84.6v512m-10.6-512v512m-10.7-512v512m-10.7-512v512m-10.6-512v512m-10.7-512v512m-21.3-512v512m-10.7-512v512m-10.7-512v512m-10.6-512v512m-10.7-512v512m-10.7-512v512"/><path class="st4" d="M96.6-84.6v512"/><path class="st3" d="M85.9-84.6v512m-10.7-512v512m-10.6-512v512m-10.7-512v512m-10.7-512v512m-10.6-512v512m-10.7-512v512m-10.7-512v512M.6-84.6v512m-10.7-512v512m-10.7-512v512m-10.6-512v512m-10.7-512v512m-10.7-512v512m-10.6-512v512m-10.7-512v512"/><path class="st4" d="M-84.8 171.4h512m-256-256v512m256-512l-512 512m0-512l512 512"/><circle class="st4" cx="171.2" cy="171.4" r="106.7"/></g><path class="st5" d="M309.6 406H32.7C14.9 406 .6 391.7.6 374V-31.2C.6-48.9 15-63.3 32.7-63.3h276.9c17.7 0 32.1 14.4 32.1 32.1V374c0 17.7-14.4 32-32.1 32z"/><path class="st5" d="M-63.5 309.8V32.9C-63.5 15.2-49.1.8-31.4.8h405.2c17.7 0 32.1 14.4 32.1 32.1v276.9c0 17.7-14.4 32.1-32.1 32.1H-31.5c-17.7 0-32-14.3-32-32.1z"/><path class="st5" d="M341.4 374H.6c-17.8 0-32.3-14.5-32.3-32.3V1c0-17.8 14.5-32.3 32.3-32.3h340.7c17.8 0 32.3 14.5 32.3 32.3v340.7c.1 17.9-14.4 32.3-32.2 32.3z"/></g><g id="square_contour" class="st0"><g class="st2"><path class="st6" d="M369.2-28.5c1.1 0 2 .9 2 2v396c0 1.1-.9 2-2 2h-396c-1.1 0-2-.9-2-2v-396c0-1.1.9-2 2-2h396m0-6h-396c-4.4 0-8 3.6-8 8v396c0 4.4 3.6 8 8 8h396c4.4 0 8-3.6 8-8v-396c0-4.4-3.6-8-8-8z"/></g></g><g id="grid_x5F_icon" class="st0"><g class="st2"><path class="st6" d="M112 7.5v263.9H81V7.5h31m6-6H75v275.9h43V1.5z"/></g><g class="st2"><path class="st6" d="M186.5 7.5v263.9h-30.9V7.5h30.9m6-6h-42.9v275.9h42.9V1.5z"/></g><g class="st2"><path class="st6" d="M261 7.5v263.9h-31V7.5h31m6-6h-43v275.9h43V1.5z"/></g><g class="st2"><path class="st7" d="M22.8 339.3L3.5 319.9v-.6l19.3-19.4"/></g><path class="st8" d="M22.2 319.6h298.3"/><g class="st2"><path class="st7" d="M319.5 339.3l19.3-19.4v-.6l-19.3-19.4"/></g></g><g id="typography_x5F_icon" class="st0"><g class="st2"><path class="st6" d="M180.9 7.5v26h-63.7c-3.3 0-6 2.7-6 6V223H76.3V39.5c0-3.3-2.7-6-6-6H7.5v-26h173.4m6-6H1.5v38h68.8V229h46.9V39.5h69.7v-38z"/></g><g class="st2"><path class="st6" d="M333.2 110L268 297.1l-3.6 8.6c-9.1 19.9-23.7 29.5-44.5 29.5-4.6 0-9.3-.5-14-1.6v-23.4h.8c9.8 0 17.1-1.6 22.3-4.8 5.3-3.3 9.5-8.6 12.4-15.9v-.1l5.3-13.9c.5-1.3.5-2.8.1-4.1L190.4 110H226l30.1 100.9c.8 2.5 3.1 4.3 5.8 4.3 2.6 0 5-1.8 5.8-4.3l30-100.9h35.5m8.4-6zm0 0h-48.4L262 209.2 230.5 104h-48.6l59.2 169.5-5.3 13.9c-2.4 6-5.7 10.4-9.9 13-4.2 2.6-10.6 3.9-19.1 3.9l-6.9-.2v34.2c6.8 2 13.4 3 20 3 23.2 0 39.9-11 50-33.1l3.8-8.9L341.6 104z"/></g></g><g id="colors_x5F_icon" class="st0"><g class="st2"><path class="st6" d="M110.6 127.6c57.3 0 104 46.6 104 104s-46.7 104-104 104-104-46.6-104-104 46.7-104 104-104m0-6c-60.8 0-110 49.2-110 110s49.2 110 110 110 110-49.2 110-110-49.2-110-110-110z"/></g><g class="st2"><path class="st6" d="M171.4 7.4c57.3 0 104 46.7 104 104s-46.6 104-104 104-104-46.7-104-104 46.6-104 104-104m0-6c-60.8 0-110 49.2-110 110s49.2 110 110 110 110-49.2 110-110-49.3-110-110-110z"/></g><g class="st2"><path class="st6" d="M232.4 127.4c57.4 0 104 46.6 104 104s-46.6 104-104 104-104-46.6-104-104 46.7-104 104-104m0-6c-60.8 0-110 49.2-110 110s49.2 110 110 110 110-49.2 110-110-49.2-110-110-110z"/></g><g class="st2"><path class="st7" d="M207.2 187.9l-15.4 27.3"/></g><g class="st2"><path class="st7" d="M188 162.6l-32.4 51.2"/></g><g class="st2"><path class="st7" d="M176.6 152.1L138 212"/></g><g class="st2"><path class="st7" d="M197.9 174.9l-25.1 41.7"/></g></g><g id="buttons_x5F_icon" class="st0"><g class="st2"><path class="st9" d="M327.1 142h-312c-2.2 0-4-1.8-4-4V55.8c0-2.2 1.8-4 4-4h312c2.2 0 4 1.8 4 4V138c0 2.2-1.7 4-4 4z"/></g><g class="st2"><path class="st10" d="M5 220.4c-.5 0-1-.5-1-1v-86.5c0-.5.5-1 1-1h331.8c.5 0 1 .5 1 1v86.5c0 .5-.5 1-1 1H5z"/><path class="st6" d="M334.8 134.9v82.5H7v-82.5h327.8m2-6H5c-2.2 0-4 1.8-4 4v86.5c0 2.2 1.8 4 4 4h331.8c2.2 0 4-1.8 4-4v-86.5c0-2.2-1.8-4-4-4z"/></g><g class="st2"><path class="st11" d="M96.2 191.2v-28.4h9.8c3.2 0 5.7.6 7.3 1.9s2.5 3.2 2.5 5.8c0 1.3-.3 2.5-1.1 3.5s-1.7 1.9-3.1 2.4c1.5.4 2.7 1.2 3.6 2.4s1.3 2.5 1.3 4.1c0 2.7-.9 4.7-2.6 6.1s-4.2 2.1-7.3 2.1l-10.4.1zm5-16.5h4.8c1.5 0 2.7-.4 3.6-1 .9-.7 1.3-1.7 1.3-3 0-1.4-.4-2.4-1.2-3.1s-2.1-.9-3.7-.9h-4.8v8zm0 3.7v8.9h5.5c1.6 0 2.8-.4 3.6-1.1.9-.8 1.3-1.8 1.3-3.2 0-2.9-1.5-4.4-4.5-4.5l-5.9-.1zm41.1-15.6v19c0 3-1 5.4-2.9 7.2s-4.5 2.6-7.7 2.6c-3.3 0-5.8-.9-7.8-2.6s-2.9-4.1-2.9-7.2v-19h4.9v19c0 1.9.5 3.4 1.4 4.4 1 1 2.4 1.5 4.3 1.5 3.8 0 5.7-2 5.7-6v-18.8l5-.1zm25.8 4h-8.9v24.4h-4.9v-24.4h-8.8v-4h22.6v4zm24.6 0h-8.9v24.4h-4.9v-24.4h-8.8v-4h22.6v4zm25.9 10.9c0 2.8-.5 5.2-1.4 7.3-1 2.1-2.3 3.7-4.1 4.8-1.8 1.1-3.9 1.7-6.2 1.7-2.3 0-4.4-.6-6.2-1.7s-3.2-2.7-4.2-4.8-1.5-4.5-1.5-7.2v-1.6c0-2.8.5-5.2 1.5-7.3s2.4-3.8 4.2-4.9c1.8-1.1 3.8-1.7 6.2-1.7s4.4.6 6.2 1.7c1.8 1.1 3.2 2.7 4.1 4.8s1.5 4.5 1.5 7.3l-.1 1.6zm-5-1.5c0-3.1-.6-5.6-1.8-7.2s-2.9-2.5-5.1-2.5c-2.1 0-3.8.8-5 2.5-1.2 1.7-1.8 4-1.9 7.1v1.6c0 3.1.6 5.5 1.8 7.2s2.9 2.6 5.1 2.6c2.2 0 3.9-.8 5.1-2.5 1.2-1.7 1.8-4.1 1.8-7.3v-1.5zm32.5 15h-4.9L228.4 171v20.2h-4.9v-28.4h4.9l12.7 20.2v-20.2h4.9l.1 28.4z"/></g><g class="st2"><path class="st12" d="M95.2 111.7V83.3h9.8c3.2 0 5.7.6 7.3 1.9s2.5 3.2 2.5 5.8c0 1.3-.3 2.5-1.1 3.5s-1.7 1.8-3.1 2.4c1.5.4 2.7 1.2 3.6 2.3s1.3 2.5 1.3 4.2c0 2.7-.9 4.7-2.6 6.2s-4.2 2.2-7.3 2.2l-10.4-.1zm5-16.4h4.8c1.5 0 2.7-.3 3.6-1 .9-.7 1.3-1.7 1.3-3 0-1.4-.4-2.4-1.2-3.1s-2.1-.9-3.7-.9h-4.8v8zm0 3.6v8.8h5.5c1.6 0 2.8-.4 3.6-1.2.9-.8 1.3-1.8 1.3-3.2 0-2.9-1.5-4.4-4.5-4.5 0 .1-5.9.1-5.9.1zm41.1-15.6v19c0 3-1 5.4-2.9 7.2s-4.5 2.7-7.7 2.7c-3.3 0-5.8-.9-7.8-2.6s-2.9-4.2-2.9-7.2v-19h4.9v19c0 1.9.5 3.3 1.4 4.3 1 1 2.4 1.5 4.3 1.5 3.8 0 5.7-2 5.7-6V83.3h5zm25.8 4h-8.9v24.4h-4.9V87.3h-8.8v-4h22.6v4zm24.6 0h-8.9v24.4h-4.9V87.3h-8.8v-4h22.6v4zm25.9 10.9c0 2.8-.5 5.2-1.4 7.3-1 2.1-2.3 3.7-4.1 4.8-1.8 1.1-3.9 1.7-6.2 1.7-2.3 0-4.4-.6-6.2-1.7-1.8-1.1-3.2-2.7-4.2-4.8-1-2.1-1.5-4.5-1.5-7.2v-1.6c0-2.8.5-5.2 1.5-7.3 1-2.1 2.4-3.8 4.2-4.9 1.8-1.1 3.8-1.7 6.2-1.7s4.4.6 6.2 1.7c1.8 1.1 3.2 2.7 4.1 4.8s1.5 4.5 1.5 7.3l-.1 1.6zm-5-1.4c0-3.2-.6-5.6-1.8-7.2s-2.8-2.6-5-2.6c-2.1 0-3.8.8-5 2.5-1.2 1.7-1.8 4-1.9 7.1v1.6c0 3.1.6 5.5 1.8 7.2s2.9 2.6 5.1 2.6c2.2 0 3.9-.8 5.1-2.5 1.2-1.7 1.8-4.1 1.8-7.3l-.1-1.4zm32.5 14.9h-4.9l-12.7-20.2v20.2h-4.9V83.3h4.9l12.7 20.2V83.3h4.9v28.4z"/></g><path class="st8" d="M327.1 294.2h-312c-2.2 0-4-1.8-4-4v-82.3c0-2.2 1.8-4 4-4h312c2.2 0 4 1.8 4 4v82.3c0 2.2-1.7 4-4 4z"/><g class="st2"><path class="st10" d="M95.2 263.9v-28.4h9.8c3.2 0 5.7.6 7.3 1.9s2.5 3.2 2.5 5.8c0 1.3-.3 2.5-1.1 3.5s-1.7 1.9-3.1 2.4c1.5.4 2.7 1.2 3.6 2.4s1.3 2.5 1.3 4.1c0 2.7-.9 4.7-2.6 6.2-1.7 1.4-4.2 2.1-7.3 2.1H95.2zm5-16.4h4.8c1.5 0 2.7-.4 3.6-1 .9-.7 1.3-1.7 1.3-3 0-1.4-.4-2.4-1.2-3.1s-2.1-.9-3.7-.9h-4.8v8zm0 3.6v8.9h5.5c1.6 0 2.8-.4 3.6-1.1.9-.8 1.3-1.8 1.3-3.2 0-2.9-1.5-4.4-4.5-4.5l-5.9-.1zm41.1-15.6v19c0 3-1 5.4-2.9 7.2s-4.5 2.6-7.7 2.6c-3.3 0-5.8-.9-7.8-2.6s-2.9-4.1-2.9-7.2v-19h4.9v19c0 1.9.5 3.3 1.4 4.3 1 1 2.4 1.5 4.3 1.5 3.8 0 5.7-2 5.7-6v-18.8h5zm25.8 4h-8.9v24.4h-4.9v-24.4h-8.8v-4h22.6v4zm24.6 0h-8.9v24.4h-4.9v-24.4h-8.8v-4h22.6v4zm25.9 10.9c0 2.8-.5 5.2-1.4 7.3-1 2.1-2.3 3.7-4.1 4.8-1.8 1.1-3.9 1.7-6.2 1.7-2.3 0-4.4-.6-6.2-1.7s-3.2-2.7-4.2-4.8c-1-2.1-1.5-4.5-1.5-7.2V249c0-2.8.5-5.2 1.5-7.3s2.4-3.8 4.2-4.9c1.8-1.1 3.8-1.7 6.2-1.7s4.4.6 6.2 1.7c1.8 1.1 3.2 2.7 4.1 4.8s1.5 4.5 1.5 7.3l-.1 1.5zm-5-1.4c0-3.1-.6-5.6-1.8-7.2s-2.9-2.5-5.1-2.5c-2.1 0-3.8.8-5 2.5-1.2 1.7-1.8 4-1.9 7.1v1.6c0 3.1.6 5.5 1.8 7.3 1.2 1.7 2.9 2.6 5.1 2.6 2.2 0 3.9-.8 5.1-2.5 1.2-1.7 1.8-4.1 1.8-7.3V249zm32.5 14.9h-4.9l-12.7-20.2v20.2h-4.9v-28.4h4.9l12.7 20.2v-20.2h4.9v28.4z"/></g><image width="284" height="177" xlink:href="58271AC4919C7DA2.png" transform="translate(62.09 199.828) scale(.8285)" overflow="visible"/></g><g id="icons_x5F_icon" class="st0"><path class="st13" d="M171.2 8.3c43.6 0 84.6 17 115.4 47.8s47.8 71.8 47.8 115.4-17 84.6-47.8 115.4-71.8 47.8-115.4 47.8-84.6-17-115.4-47.8S7.9 215.1 7.9 171.5s17-84.6 47.8-115.4C86.6 25.2 127.6 8.3 171.2 8.3m0-6C77.7 2.3 1.9 78.1 1.9 171.5s75.8 169.2 169.2 169.2S340.4 265 340.4 171.5 264.6 2.3 171.2 2.3z"/><path class="st13" d="M236.2 41.1c-.2-.2-.5-.4-.8-.6-3.9-1.9-7.8-3.6-11.8-5.2h-.1c-.1 0-.1 0-.2-.1h-.1c-.1 0-.1 0-.2-.1h-.1c-.1 0-.1 0-.1-.1h-.4c-2.7-1-5.5-1.9-8.2-2.7-1.6-.5-3.3.4-3.7 2-.3 1.1 0 2.2.8 3 .3.3.8.6 1.3.8 7.3 2.2 14.5 5 21.4 8.4 1.5.7 3.3.1 4-1.4-.6-1.8-.9-3.1-1.8-4zm-44.8-13.5c-.4-.5-1.1-.8-1.7-.9h-1.6c-6.2-.7-12.5-1-18.7-1h-3.9c-1.6.1-2.9 1.5-2.9 3.1 0 .8.4 1.5.9 2 .6.6 1.4.9 2.2.9 7.6-.3 15.4 0 23 1 1.6.2 3.1-1 3.4-2.6.3-.9-.1-1.8-.7-2.5zm-46.8 1.8c-.7-.7-1.7-1-2.7-.8-7.8 1.6-15.5 3.8-23 6.7-1.5.6-2.3 2.3-1.7 3.9.2.4.4.8.7 1 .8.8 2.1 1.1 3.2.7 7.1-2.7 14.6-4.9 22.1-6.4 1.6-.3 2.7-1.9 2.3-3.5-.2-.6-.5-1.2-.9-1.6zm-43.7 16.8c-.9-.9-2.4-1.2-3.6-.5-2 1.2-4 2.4-6 3.7h-.1c-.1 0-.1.1-.1.1-.1 0-.1.1-.1.1-.1 0-.1.1-.1.1s-.1 0-.1.1c0 0-.1 0-.1.1 0 0-.1 0-.1.1 0 0-.1 0-.1.1h-.4s-.1 0-.1.1h-.1s-.1 0-.1.1c0 0-.1 0-.1.1-.1 0-.1.1-.1.1-.1 0-.1.1-.2.1-2.3 1.7-4.5 3.5-6.7 5.3-1.3 1.1-1.4 3-.4 4.2l.2.2c1.1 1.1 2.8 1.2 4.1.2 5.9-4.9 12.2-9.4 18.8-13.3 1.4-.8 1.9-2.7 1.1-4.1-5.2 3.5-5.4 3.3-5.6 3.1zM65.1 76.3l-.2-.2c-1.3-1.1-3.2-.9-4.2.3-5.3 6.2-10 12.6-14.1 19.4-.7 1.2-.5 2.7.4 3.7.2.2.4.3.6.4 1.4.9 3.3.4 4.1-1 4-6.5 8.5-12.8 13.5-18.6 1-1.2 1-2.9-.1-4zm-24.3 40c-.3-.3-.6-.5-1-.7-1.5-.6-3.3.1-3.9 1.7-1.2 3.1-2.4 6.2-3.4 9.4 0 .1-.1.2-.1.3 0 .1 0 .1-.1.2v2.1c0 .1 0 .2-.1.3 0 .1-.1.2-.1.3v.1c-.7 2.6-1.3 5.1-1.9 7.7-.2 1 .1 2.1.8 2.8.4.4.9.7 1.5.8 1.6.4 3.2-.7 3.6-2.3 1.6-7.5 3.9-14.9 6.7-22-.9 1.3-1.2.1-2-.7zm-10 45.7c-.5-.5-1.2-.8-2-.9-1.6-.1-3.1 1.2-3.1 2.8-.3 5.6-.2 11.1.1 16.7v4.7c.1.9.2 1.8.3 2.8.1.7.4 1.3.9 1.8.6.6 1.5 1 2.5.9 1.6-.2 2.8-1.7 2.6-3.3-.9-7.6-1.1-15.3-.7-23 .3-1.1 0-1.9-.6-2.5zm5.3 46.5c-.7-.7-1.9-1.1-3-.8-1.6.4-2.5 2.1-2.1 3.7 2.2 7.6 5 15.2 8.5 22.4.2.3.3.6.6.8.9.9 2.2 1.1 3.4.6 1.5-.7 2.1-2.5 1.4-4-3.3-6.9-6-14.1-8.1-21.5-.1-.4-.4-.8-.7-1.2zm20.1 42.3c-1-1-2.6-1.2-3.8-.3-1.4.9-1.7 2.8-.7 4.2.6.8 1.1 1.6 1.7 2.4l.1.1v.1s0 .1.1.1c2.6 3.5 5.3 6.8 8.2 10.1 0 .1.1.1.2.2l.1.1.1.1.1.1s0 .1.1.1l.1.1c.9 1 1.9 2 2.8 3 1.2 1.2 3 1.2 4.2 0 1.2-1.2 1.2-3.1.1-4.2-5.4-5.5-10.3-11.5-14.7-17.7 1.5 1.7 1.4 1.6 1.3 1.5zm52.6 45.8c-.2-.2-.5-.4-.8-.5-6.8-3.5-13.4-7.5-19.6-12-1.3-1-3.2-.7-4.2.6-.9 1.2-.7 2.9.3 3.9l.3.3c2.2 1.6 4.5 3.2 6.8 4.7.1 0 .2.1.2.1.1 0 .1.1.2.1 0 0 .1 0 .1.1 0 0 .1 0 .1.1.1 0 .1.1.2.1 3.8 2.4 7.8 4.6 11.8 6.7 1.5.8 3.3.2 4-1.3 1.8-.6 1.5-2 .6-2.9zm44.7 14c-.4-.4-1-.8-1.7-.9-7.6-1.1-15.1-2.8-22.4-5-1.6-.5-3.3.4-3.8 2-.3 1.1 0 2.3.7 3 .3.3.8.6 1.2.7 3.8 1.2 7.6 2.2 11.4 3.1h1.8c2.9.6 5.9 1.1 8.8 1.5 1.6.2 3.1-.9 3.4-2.6 1.6-.2 1.2-1.2.6-1.8zm46.8-1.2c-.7-.7-1.7-1-2.7-.8-7.5 1.4-15.2 2.3-22.9 2.5-1.7 0-3 1.4-2.9 3.1 0 .8.4 1.5.9 2 .6.6 1.3.9 2.2.9h5.9c4-.2 8-.7 12-1.3h6.7c1.6-.3 2.7-1.9 2.4-3.5-.9-1.9-1.2-2.4-1.6-2.9zm43.9-16.2c-.9-.9-2.4-1.2-3.6-.5-6.6 3.8-13.6 7.1-20.8 9.7-1.6.6-2.4 2.3-1.8 3.9.2.4.4.8.7 1.1.8.8 2 1.1 3.1.7 6.1-2.2 12.1-4.9 17.9-8h.2c.1 0 .1-.1.1-.1 1-.5 2-1.1 3-1.6 1.4-.8 1.9-2.7 1.1-4.1.4-.7.3-.9.1-1.1zm36.2-29.6l-.1-.1c-1.2-1.1-3.1-1-4.2.3-1.9 2.2-4 4.3-6 6.4-3.4 3.4-6.9 6.6-10.5 9.5-1.3 1-1.5 2.9-.4 4.2.1.1.1.2.2.2 1.1 1.1 2.8 1.2 4 .2 2-1.6 4-3.4 5.9-5.1l.1-.1.1-.1.1-.1.1-.1.1-.1c1.6-1.6 3.1-3.3 4.6-4.9 7.2-7.3 7.1-9.1 6-10.2zm24.8-39.7c-.3-.3-.6-.5-1-.6-1.5-.6-3.3.1-3.9 1.6-2.9 7.1-6.5 13.9-10.5 20.4-.8 1.2-.5 2.7.4 3.7.2.2.3.3.5.4 1.4.9 3.2.4 4.1-.9l3.6-6c0-.1.1-.1.1-.2s.1-.2.1-.2v-3.9c0-.1 0-.1.1-.1v-.9c7.7-11.1 7.4-12.4 6.5-13.3zm10.6-45.5c-.5-.5-1.2-.8-1.9-.9-1.6-.1-3.1 1.1-3.2 2.8-.5 7.6-1.6 15.3-3.3 22.8-.2 1.1.1 2.1.8 2.8.4.4.9.7 1.4.8 1.6.4 3.2-.6 3.6-2.2v-25.4c3.5.7 3.2-.2 2.6-.7zm-4.7-46.6c-.7-.7-1.8-1.1-2.9-.8-1.6.4-2.5 2.1-2.1 3.7 2 7.4 3.4 15 4.2 22.6.1.7.4 1.4.9 1.8.6.6 1.5 1 2.4.9 1.6-.2 2.9-1.6 2.7-3.3v-.7c-.7-6.4-1.8-12.8-3.4-19v-1.3c-.1-.3-.1-.5-.2-.8-1-2.3-1.2-2.8-1.6-3.1zm-19.5-42.6c-1-1-2.6-1.2-3.8-.4-1.4.9-1.7 2.8-.8 4.2 4.3 6.3 8.1 13.1 11.3 20 .1.3.4.6.6.9.9.9 2.2 1.1 3.4.6 1.5-.7 2.2-2.5 1.5-4-2.3-5-4.9-9.9-7.8-14.7 0-.1-.1-.1-.1-.2s-.1-.1-.1-.2-.1-.1-.1-.1 0-.1-.1-.1c0 0 0-.1-.1-.1 0-.1-.1-.1-.1-.2-.9-1.4-1.8-2.9-2.8-4.3-.7-1.1-.9-1.2-1-1.4zm-17.3-20.9c-.1 0-.1-.1 0 0l-.1-.1s0-.1-.1-.1c0 0 0-.1-.1-.1 0 0 0-.1-.1-.1 0 0 0-.1-.1-.1 0 0 0-.1-.1-.1 0 0 0-.1-.1-.1 0 0 0-.1-.1-.1 0 0 0-.1-.1-.1l-.1-.1-.1-.1-.1-.1-.1-.1-.2-.2-.2-.2c-.1 0-.1-.1-.2-.2l-.3-.3-.2-.2c-4.2-3.8-8.5-7.3-13-10.5-1.4-1-3.2-.7-4.2.7-.9 1.2-.7 2.8.3 3.9.1.1.2.2.4.3 6.2 4.4 12.1 9.5 17.5 14.9.9.8 1.7 1.7 2.5 2.6v.1c1.1 1.2 3 1.2 4.2.1 1.2-1.1 1.2-3 .1-4.2-.8-.8-1.6-1.7-2.5-2.5-2.8-2.9-2.9-2.9-2.9-3z"/><g class="st2"><path class="st15" d="M156 103.4c0-4.2 1.3-7.6 3.9-10.4s6.4-4.1 11.2-4.1 8.6 1.4 11.3 4.1c2.6 2.8 4 6.2 4 10.4 0 4.1-1.3 7.5-4 10.2s-6.4 4.1-11.3 4.1-8.6-1.3-11.2-4.1c-2.6-2.8-3.9-6.2-3.9-10.2zm28.5 150.7h-26.9V134.5h26.9v119.6z"/></g></g><g id="links_x5F_icon" class="st0"><path class="st16" d="M153.5 232.1l-51 51c-11.7 11.7-31 11.7-42.7 0-11.7-11.7-11.7-31 0-42.7l51-51c11.7-11.7 31-11.7 42.7 0 11.7 11.8 11.7 31 0 42.7zm129.8-129.9l-51 51c-11.7 11.7-31 11.7-42.7 0-11.7-11.7-11.7-31 0-42.7l51-51c11.7-11.7 31-11.7 42.7 0 11.7 11.7 11.7 30.9 0 42.7z"/><path transform="rotate(-45.001 171.786 171.514)" class="st17" d="M153.7 168.3h36.1v6.3h-36.1z"/><path transform="rotate(-45.001 47.27 295.632)" class="st17" d="M38.2 292.5h18v6.3h-18z"/><path transform="rotate(-45.001 295.319 48.607)" class="st17" d="M286.3 45.4h18v6.3h-18z"/></g><g id="cards_x5F_icon" class="st0"><g class="st2"><path class="st10" d="M100.2 77.5v73.8H26.5V77.5h73.7m2-6H24.5c-2.2 0-4 1.8-4 4v77.8c0 2.2 1.8 4 4 4h77.8c2.2 0 4-1.8 4-4V75.5c-.1-2.2-1.9-4-4.1-4z"/></g><g class="st2"><path class="st10" d="M207.9 77.5v73.8h-73.8V77.5h73.8m2-6h-77.8c-2.2 0-4 1.8-4 4v77.8c0 2.2 1.8 4 4 4h77.8c2.2 0 4-1.8 4-4V75.5c0-2.2-1.8-4-4-4z"/></g><g class="st2"><path class="st10" d="M315.5 77.5v73.8h-73.8V77.5h73.8m2-6h-77.8c-2.2 0-4 1.8-4 4v77.8c0 2.2 1.8 4 4 4h77.8c2.2 0 4-1.8 4-4V75.5c0-2.2-1.8-4-4-4z"/></g><g class="st2"><path class="st18" d="M25.8 136.3h75.7"/></g><g class="st2"><path class="st18" d="M131.2 136.3h75.7"/></g><g class="st2"><path class="st18" d="M239.6 136.3h75.7"/></g><path class="st19" d="M68.6 102.9l-9.5 9.5m-5.3-9.5l-9.5 9.5m39.1-9.5l-9.4 9.5m101.6-9.5l-9.5 9.5m-5.3-9.5l-9.5 9.5m39.1-9.5l-9.4 9.5m102.6-9.5l-9.5 9.5m-5.3-9.5l-9.5 9.5m39.2-9.5l-9.5 9.5"/><g class="st2"><path class="st10" d="M100.2 190.8v73.8H26.5v-73.8h73.7m2-6H24.5c-2.2 0-4 1.8-4 4v77.8c0 2.2 1.8 4 4 4h77.8c2.2 0 4-1.8 4-4v-77.8c-.1-2.2-1.9-4-4.1-4z"/></g><g class="st2"><path class="st10" d="M207.9 190.8v73.8h-73.8v-73.8h73.8m2-6h-77.8c-2.2 0-4 1.8-4 4v77.8c0 2.2 1.8 4 4 4h77.8c2.2 0 4-1.8 4-4v-77.8c0-2.2-1.8-4-4-4z"/></g><g class="st2"><path class="st10" d="M315.5 190.8v73.8h-73.8v-73.8h73.8m2-6h-77.8c-2.2 0-4 1.8-4 4v77.8c0 2.2 1.8 4 4 4h77.8c2.2 0 4-1.8 4-4v-77.8c0-2.2-1.8-4-4-4z"/></g><g class="st2"><path class="st18" d="M25.8 249.6h75.7"/></g><g class="st2"><path class="st18" d="M131.2 249.6h75.7"/></g><g class="st2"><path class="st18" d="M239.6 249.6h75.7"/></g><path class="st19" d="M68.6 216.2l-9.5 9.5m-5.3-9.5l-9.5 9.5m39.1-9.5l-9.4 9.5m101.6-9.5l-9.5 9.5m-5.3-9.5l-9.5 9.5m39.1-9.5l-9.4 9.5m102.6-9.5l-9.5 9.5m-5.3-9.5l-9.5 9.5m39.2-9.5l-9.5 9.5"/></g><g id="tables_x5F_icon" class="st0"><path class="st19" d="M68.9 83.1H6.8c-2.2 0-4-1.8-4-4V57.6c0-2.2 1.8-4 4-4H69c2.2 0 4 1.8 4 4v21.5c-.1 2.2-1.8 4-4.1 4zm0 50.3H6.8c-2.2 0-4-1.8-4-4v-21.5c0-2.2 1.8-4 4-4H69c2.2 0 4 1.8 4 4v21.5c-.1 2.2-1.8 4-4.1 4zm0 50.3H6.8c-2.2 0-4-1.8-4-4v-21.5c0-2.2 1.8-4 4-4H69c2.2 0 4 1.8 4 4v21.5c-.1 2.2-1.8 4-4.1 4zm0 50.2H6.8c-2.2 0-4-1.8-4-4v-21.5c0-2.2 1.8-4 4-4H69c2.2 0 4 1.8 4 4v21.5c-.1 2.2-1.8 4-4.1 4zm0 50.3H6.8c-2.2 0-4-1.8-4-4v-21.5c0-2.2 1.8-4 4-4H69c2.2 0 4 1.8 4 4v21.5c-.1 2.2-1.8 4-4.1 4zm88.5-150.8H95.3c-2.2 0-4-1.8-4-4v-21.5c0-2.2 1.8-4 4-4h62.2c2.2 0 4 1.8 4 4v21.5c-.1 2.2-1.9 4-4.1 4zm.5 50.3H95.8c-2.2 0-4-1.8-4-4v-21.5c0-2.2 1.8-4 4-4H158c2.2 0 4 1.8 4 4v21.5c-.1 2.2-1.9 4-4.1 4zm.5 50.2H96.2c-2.2 0-4-1.8-4-4v-21.5c0-2.2 1.8-4 4-4h62.1c2.2 0 4 1.8 4 4v21.5c.1 2.2-1.7 4-3.9 4zm87.5-100.5h-62.1c-2.2 0-4-1.8-4-4v-21.5c0-2.2 1.8-4 4-4h62.1c2.2 0 4 1.8 4 4v21.5c0 2.2-1.8 4-4 4zm88.4 0h-62.1c-2.2 0-4-1.8-4-4v-21.5c0-2.2 1.8-4 4-4h62.1c2.2 0 4 1.8 4 4v21.5c0 2.2-1.8 4-4 4zm-87.4 50.3h-62.1c-2.2 0-4-1.8-4-4v-21.5c0-2.2 1.8-4 4-4h62.1c2.2 0 4 1.8 4 4v21.5c0 2.2-1.8 4-4 4zM157.4 83.1H95.3c-2.2 0-4-1.8-4-4V57.6c0-2.2 1.8-4 4-4h62.2c2.2 0 4 1.8 4 4v21.5c-.1 2.2-1.9 4-4.1 4zm88.5 0h-62.1c-2.2 0-4-1.8-4-4V57.6c0-2.2 1.8-4 4-4h62.1c2.2 0 4 1.8 4 4v21.5c0 2.2-1.8 4-4 4zm88.4 0h-62.1c-2.2 0-4-1.8-4-4V57.6c0-2.2 1.8-4 4-4h62.1c2.2 0 4 1.8 4 4v21.5c0 2.2-1.8 4-4 4zM42.6 63.7l-9.5 9.5m-5.3-9.5l-9.5 9.5m39.1-9.5l-9.5 9.5m82.1-9.5l-9.5 9.5m-5.3-9.5l-9.5 9.5m39.1-9.5l-9.5 9.5m82.1-9.5l-9.4 9.5m-5.4-9.5l-9.5 9.5m39.2-9.5l-9.5 9.5m84-9.5l-9.5 9.5m-5.3-9.5l-9.5 9.5m39.1-9.5l-9.5 9.5"/></g><g id="maps_x5F_icon" class="st0"><path class="st19" d="M26.4 63.8l107 107m-87-127l68.6 68.6m18.4 61.4l-107 107m127-87l-107 107m272.4-108.6H154.3m164.1-32H212.2m-2-54c0 21.3-38.7 58.7-38.7 58.7s-38.7-37.3-38.7-58.7 17.3-38.7 38.7-38.7 38.7 17.4 38.7 38.7z"/><circle class="st19" cx="171.6" cy="102.2" r="10.7"/></g><g id="forms" class="st0"><path class="st19" d="M310.2 83.6v20.7M34.6 83.6v20.7m.6 0h275m0 55.6v20.7M34.6 159.9v20.7m.6 0h275m0 52.6V254M34.6 233.2V254m.6 0h275"/><g class="st2"><path class="st10" d="M67.7 91.9h-4.2V71.3l-6.3 2.1v-3.6l10-3.7h.5v25.8z"/></g><g class="st2"><path class="st10" d="M74.3 170.4H57.1v-2.9l8.5-9.3c1.2-1.4 2.1-2.5 2.6-3.4s.8-1.8.8-2.8c0-1.2-.3-2.2-1-2.9s-1.6-1.1-2.8-1.1c-1.4 0-2.5.4-3.2 1.3s-1.1 2-1.1 3.5h-4.3c0-1.6.3-3 1.1-4.2s1.7-2.2 3-2.9 2.8-1 4.6-1c2.5 0 4.4.6 5.9 1.9s2.2 3 2.2 5.2c0 1.3-.4 2.6-1.1 4s-1.9 3-3.5 4.8l-6.3 6.7h11.9l-.1 3.1z"/></g><g class="st2"><path class="st10" d="M62.1 228.4h2.6c1.3 0 2.3-.4 3.1-1s1.2-1.6 1.2-2.9c0-1.2-.3-2.2-1-2.8s-1.6-1-2.9-1c-1.2 0-2.1.3-2.8 1s-1.1 1.5-1.1 2.6h-4.3c0-1.3.3-2.5 1-3.6s1.7-1.9 2.9-2.5 2.7-.9 4.2-.9c2.6 0 4.6.6 6 1.9s2.2 3.1 2.2 5.4c0 1.1-.4 2.2-1.1 3.2s-1.7 1.8-2.8 2.3c1.4.5 2.5 1.2 3.2 2.3s1.1 2.3 1.1 3.7c0 2.3-.8 4.1-2.4 5.5s-3.7 2-6.2 2-4.5-.7-6-2-2.4-3.1-2.4-5.2h4.3c0 1.1.4 2 1.1 2.7s1.8 1.1 3 1.1c1.3 0 2.4-.4 3.1-1.1s1.1-1.7 1.1-3.1c0-1.4-.4-2.4-1.2-3.1s-2-1.1-3.6-1.1h-2.5l.2-3.4z"/></g></g><g id="modals" class="st0"><path class="st16" d="M304.8 293.3H37.2c-2.2 0-4-1.8-4-4V52.7c0-2.2 1.8-4 4-4h267.7c2.2 0 4 1.8 4 4v236.5c-.1 2.3-1.9 4.1-4.1 4.1zM35.5 85h275.2"/><path class="st20" d="M273.3 74.3L287 60.6m-13.7 0L287 74.3"/><path class="st16" d="M30.4 256h275.2m-134.2-1.3v38.1"/><path class="st19" d="M214 269.7l-9.5 9.5m-5.3-9.5l-9.5 9.5m39.1-9.5l-9.5 9.5m38.7-8.5l-9.5 9.5m-5.3-9.5l-9.5 9.5m39.1-9.5l-9.5 9.5m23.7-9.5l-9.5 9.5"/><g class="st2"><path class="st7" d="M69.8 189.3l-19.4-19.4v-.6l19.4-19.4m1 19.7h204.6m1 19.7l19.4-19.4v-.6l-19.4-19.4"/></g></g><path d="M299.2 122.5H42.8c-2.2 0-4-1.8-4-4v-27c0-2.2 1.8-4 4-4h256.4c2.2 0 4 1.8 4 4v27c0 2.2-1.8 4-4 4zm0 65H42.8c-2.2 0-4-1.8-4-4v-27c0-2.2 1.8-4 4-4h256.4c2.2 0 4 1.8 4 4v27c0 2.2-1.8 4-4 4zm0 67H42.8c-2.2 0-4-1.8-4-4v-27c0-2.2 1.8-4 4-4h256.4c2.2 0 4 1.8 4 4v27c0 2.2-1.8 4-4 4z" id="burger_x5F_menu"/></svg>