<svg id="Layer_1" data-name="Layer 1" xmlns="http://www.w3.org/2000/svg" viewBox="0 0 341.8 340.2"><defs><style>.cls-1{fill:#4197d3}.cls-2{fill:none;stroke:#4197d3;stroke-linecap:round;stroke-linejoin:round;stroke-width:6px}</style></defs><title>colors-icon</title><g id="colors_icon"><path class="cls-1" d="M110.61 127.56a104 104 0 1 1-104 104 104.11 104.11 0 0 1 104-104m0-6a110 110 0 1 0 110 110 110 110 0 0 0-110-110z" transform="translate(-.61 -1.36)"/><path class="cls-1" d="M171.36 7.36a104 104 0 1 1-104 104 104.11 104.11 0 0 1 104-104m0-6a110 110 0 1 0 110 110 110 110 0 0 0-110-110z" transform="translate(-.61 -1.36)"/><path class="cls-1" d="M232.41 127.44a104 104 0 1 1-104 104 104.11 104.11 0 0 1 104-104m0-6a110 110 0 1 0 110 110 110 110 0 0 0-110-110z" transform="translate(-.61 -1.36)"/><path class="cls-2" d="M206.56 186.52l-15.38 27.37m-3.77-52.7L155 212.41m20.97-61.66l-38.6 59.92m59.97-37.15l-25.17 41.76"/></g></svg>