<svg width="122" height="33" viewBox="0 0 122 33" xmlns="http://www.w3.org/2000/svg"><title>logo</title><g fill="none" fill-rule="evenodd"><path d="M56.723 19.305H46.64s-3.472-.024-3.472 3.353v6.077s-.17 3.425 3.449 3.425h10.08v-3.425h-9.02s-1.037.048-1.037-1.133V23.67s-.047-1.012 1.062-1.012h9.02v-3.353zm15.097 0H61.018s-3.45-.024-3.45 3.353v6.077s-.193 3.425 3.45 3.425h10.78v-3.425h-9.744s-1.036.048-1.036-1.133V23.67s-.05-1.012 1.06-1.012h9.744v-3.353z" fill="#003876"/><path fill="#003876" d="M63 26.725h8.417V24H63zM104.256 19H93.45S90 18.976 90 22.353v6.077s-.192 3.425 3.45 3.425h10.805V28.43h-9.744s-1.061.048-1.061-1.133v-3.932s-.024-1.012 1.06-1.012h9.745V19z"/><path fill="#003876" d="M96 26.725h8.393V24H96zM85.927 19H73v12.855h3.424v-9.454h3.039v9.454h3.425v-9.454h3.039v9.454h3.4v-9.527S89.521 19 85.927 19m35.521 0h-3.641v1.833l-4.584 2.581-4.581-2.581V19H105v3.328l4.823 3.087L105 28.527v3.328h3.642v-1.833l4.581-2.581 4.584 2.581v1.833h3.641v-3.328l-4.823-3.112 4.823-3.087z"/><path fill="#EE3D42" d="M26.796 0L0 31.812h11.626L38.445 0z"/><path fill="#003876" d="M44.795 0L18 31.812h11.625L56.42 0z"/></g></svg>